# xmcd CD database file
#
# Track frame offsets:
#	150
#	24825
#	50024
#	74699
#
# Disc length: 1331 seconds
#
# Revision: 0
# Processed by: cddbd v1.5.1PL2 Copyright (c) Steve Scherf et al.
# Submitted via: CDex 1.51
#
DISCID=32053104
DTITLE=椎名純平 - 残像／Zero-One
DYEAR=2006
DGENRE=R&B
TTITLE0=残像
TTITLE1=Zero-One
TTITLE2=残像 Instrumental
TTITLE3=Zero-One Instrumental
EXTD=YEAR: 2006.02..22
EXTT0=
EXTT1=
EXTT2=
EXTT3=
PLAYORDER=
